<svg width="27" height="27" viewBox="0 0 27 27" fill="none" xmlns="http://www.w3.org/2000/svg">
<g clip-path="url(#clip0_7719_1972)">
<path d="M24.3 9.00265H20.3934L17.9212 3.24827C17.8273 3.0245 17.6482 2.84722 17.4235 2.75545C17.1988 2.66367 16.9469 2.66491 16.7231 2.7589C16.4993 2.85288 16.3221 3.03192 16.2303 3.25661C16.1385 3.4813 16.1398 3.73325 16.2337 3.95702L18.3937 9.01952H8.55562L10.7156 3.95702C10.8096 3.73325 10.8109 3.4813 10.7191 3.25661C10.6273 3.03192 10.45 2.85288 10.2262 2.7589C10.0025 2.66491 9.75053 2.66367 9.52583 2.75545C9.30114 2.84722 9.12211 3.0245 9.02812 3.24827L6.59812 9.00265H2.7C2.34543 9.00265 1.99433 9.07248 1.66675 9.20817C1.33918 9.34386 1.04153 9.54274 0.790812 9.79346C0.284463 10.2998 0 10.9866 0 11.7026C0 12.4187 0.284463 13.1055 0.790812 13.6118C1.29716 14.1182 1.98392 14.4026 2.7 14.4026H19.7184C19.8438 14.4148 19.9702 14.4006 20.0898 14.361C20.2093 14.3214 20.3192 14.2572 20.4124 14.1725C20.5056 14.0879 20.5801 13.9847 20.6311 13.8696C20.6821 13.7545 20.7084 13.63 20.7084 13.5041C20.7084 13.3781 20.6821 13.2536 20.6311 13.1385C20.5801 13.0234 20.5056 12.9202 20.4124 12.8356C20.3192 12.7509 20.2093 12.6867 20.0898 12.6471C19.9702 12.6075 19.8438 12.5933 19.7184 12.6055H2.7C2.52132 12.6049 2.34682 12.5514 2.19859 12.4516C2.05036 12.3519 1.93507 12.2104 1.86731 12.045C1.79955 11.8797 1.78238 11.698 1.81796 11.5229C1.85354 11.3478 1.94028 11.1872 2.06719 11.0614C2.14853 10.976 2.24687 10.9086 2.35587 10.8635C2.46487 10.8185 2.5821 10.7968 2.7 10.7998H24.3C24.4253 10.7877 24.5518 10.8019 24.6713 10.8415C24.7908 10.8811 24.9007 10.9453 24.994 11.0299C25.0872 11.1146 25.1617 11.2177 25.2127 11.3329C25.2637 11.448 25.29 11.5725 25.29 11.6984C25.29 11.8243 25.2637 11.9489 25.2127 12.064C25.1617 12.1791 25.0872 12.2823 24.994 12.3669C24.9007 12.4515 24.7908 12.5157 24.6713 12.5554C24.5518 12.595 24.4253 12.6092 24.3 12.597H23.3972C23.172 12.6078 22.958 12.6988 22.794 12.8535C22.63 13.0083 22.5267 13.2166 22.5028 13.4408L21.9375 20.0389C21.8784 20.7096 21.5701 21.3338 21.0734 21.7883C20.5767 22.2428 19.9277 22.4947 19.2544 22.4942H7.78781C7.10728 22.5054 6.44779 22.2583 5.94212 21.8027C5.43645 21.3471 5.12215 20.7169 5.0625 20.0389L4.78406 17.0183C4.75634 16.7843 4.63823 16.5704 4.45494 16.4223C4.27166 16.2742 4.03773 16.2036 3.80312 16.2256C3.56851 16.2476 3.3518 16.3605 3.19929 16.5402C3.04678 16.7198 2.97055 16.9519 2.98688 17.187L3.26531 20.2076C3.36322 21.3347 3.88388 22.383 4.72275 23.1421C5.56162 23.9011 6.6566 24.3147 7.78781 24.2998H19.2122C20.3362 24.3041 21.4207 23.8857 22.2506 23.1277C23.0805 22.3696 23.5951 21.3274 23.6925 20.2076L24.2241 14.4026H24.3C25.0161 14.4026 25.7028 14.1182 26.2092 13.6118C26.7155 13.1055 27 12.4187 27 11.7026C27 10.9866 26.7155 10.2998 26.2092 9.79346C25.7028 9.28711 25.0161 9.00265 24.3 9.00265Z" fill="white"/>
</g>
<defs>
<clipPath id="clip0_7719_1972">
<rect width="27" height="27" fill="white"/>
</clipPath>
</defs>
</svg>
